# xmcd
#
# Track frame offsets: 
#        150
#        15825
#        43140
#        60533
#        82073
#        96023
#        112823
#        136921
#        161926
#        190314
#
# Disc length: 2703 seconds
#
# Revision: 0
# Processed by: cddbd v1.4PL0 Copyright (c) Steve Scherf et al.
# Submitted via: ExactAudioCopy v0.90b4
#
DISCID=7b0a8d0a
DTITLE=Chris Wilson - King for a Day
DYEAR=2002
DGENRE=Folk
TTITLE0=Something That I Said
TTITLE1=Jesus Took Possession Over Judgement Day
TTITLE2=Embers Down The Mountain
TTITLE3=Black Birding
TTITLE4=You Got It Right The First Time
TTITLE5=Look What Daddy Done
TTITLE6=Skin That You Once Wore
TTITLE7=Little Jasper
TTITLE8=She Danced With The Spirits
TTITLE9=Look Out Love
EXTD=
EXTT0=
EXTT1=
EXTT2=
EXTT3=
EXTT4=
EXTT5=
EXTT6=
EXTT7=
EXTT8=
EXTT9=
PLAYORDER=
